<?xml version="1.0" encoding="utf-8"?>
<!-- Generator: Adobe Illustrator 25.3.1, SVG Export Plug-In . SVG Version: 6.00 Build 0)  -->
<svg version="1.1" id="レイヤー_1" xmlns="http://www.w3.org/2000/svg" xmlns:xlink="http://www.w3.org/1999/xlink" x="0px"
	 y="0px" viewBox="0 0 248.5 30.1" style="enable-background:new 0 0 248.5 30.1;" xml:space="preserve">
<style type="text/css">
	.st0{fill:none;}
	.st1{fill:#0AA6FF;}
	.st2{font-family:'BDKickromMono';}
	.st3{font-size:42.5197px;}
	.st4{fill:#6FAFFF;}
	.st5{fill:#00E189;}
	.st6{fill:#B3FFCA;}
</style>
<polygon class="st0" points="141.8,0 139.7,3.6 137.7,0 124.7,0 124.7,30.1 131.6,30.1 131.6,26.5 133.6,30.1 145.2,30.1 
	147.2,26.5 147.4,30.1 154.8,30.1 154.8,0 "/>
<polygon class="st0" points="17.1,0 15.1,3.6 13,0 0,0 0,30.1 6.9,30.1 6.9,26.5 8.9,30.1 20.5,30.1 22.5,26.5 22.7,30.1 30.1,30.1 
	30.1,0 "/>
<text transform="matrix(1 0 0 1 15.0499 30.1)"><tspan x="0" y="0" class="st1 st2 st3">M</tspan><tspan x="24.7" y="0" class="st4 st2 st3">O</tspan><tspan x="49.3" y="0" class="st5 st2 st3">R</tspan><tspan x="74" y="0" class="st6 st2 st3">I</tspan><tspan x="98.6" y="0" class="st2 st3">SHIMA</tspan></text>
</svg>
